<?xml version="1.0" encoding="utf-8"?>
<!-- Generator: Adobe Illustrator 22.1.0, SVG Export Plug-In . SVG Version: 6.00 Build 0)  -->
<svg version="1.1" id="INSTAGRAM" xmlns="http://www.w3.org/2000/svg" xmlns:xlink="http://www.w3.org/1999/xlink" x="0px" y="0px"
	 viewBox="0 0 21 19" style="enable-background:new 0 0 21 19;" xml:space="preserve">
<style type="text/css">
	.st0{fill:none;}
</style>
<g>
	<path class="st0" d="M10,4.4C7,4.5,4.7,6.9,4.7,9.9c-0.1,3,2.3,5.4,5.2,5.5c3-0.1,5.3-2.5,5.2-5.5C15.2,6.9,12.9,4.5,10,4.4z
		 M10,12.2c-1.3,0-2.3-1.1-2.2-2.3c0-1.3,1-2.3,2.2-2.3c1.3,0,2.3,1.1,2.2,2.3C12.2,11.1,11.2,12.2,10,12.2z"/>
	<path d="M14.3,0h-8c-3.2-0.1-5.9,2.5-6,5.7v7.7c0.1,3.1,2.8,5.6,6,5.6h8c3.2,0.1,5.8-2.5,5.9-5.6V5.7C20.1,2.5,17.5-0.1,14.3,0z
		 M9.9,15.4C7,15.3,4.6,12.9,4.7,9.9c0-3,2.3-5.4,5.3-5.5c2.9,0.1,5.2,2.5,5.1,5.5C15.2,12.9,12.9,15.3,9.9,15.4z M15.8,5.3
		c-0.7,0-1.3-0.5-1.3-1.2c0-0.7,0.5-1.2,1.2-1.3C16.4,2.8,17,3.3,17,4S16.5,5.3,15.8,5.3z"/>
	<path d="M10,7.6c-1.2,0-2.2,1-2.2,2.3c-0.1,1.2,0.9,2.3,2.2,2.3c1.2,0,2.2-1.1,2.2-2.3C12.3,8.7,11.3,7.6,10,7.6z"/>
</g>
</svg>
