<?xml version="1.0" encoding="utf-8"?>
<!-- Generator: Adobe Illustrator 21.1.0, SVG Export Plug-In . SVG Version: 6.00 Build 0)  -->
<svg version="1.1" id="Layer_1" xmlns="http://www.w3.org/2000/svg" xmlns:xlink="http://www.w3.org/1999/xlink" x="0px" y="0px"
	 viewBox="0 0 19.1 19" style="enable-background:new 0 0 19.1 19;" xml:space="preserve">
<path d="M19.1,11.6V19l-3.8,0v-6.3c0-1.7,0.2-3.4-2.8-3.4c-1,0-1.9,0.6-2.2,1.6c-0.1,0.3-0.2,0.7-0.1,1l0,7.1H6.4
	c0,0,0.1-11.4,0-12.6l3.8-0.1V8c0,0,0,0,0,0h0v0c0.6-0.9,1.5-1.7,3.9-1.7C16.8,6.3,19.1,7.7,19.1,11.6L19.1,11.6L19.1,11.6z M1.9,0
	c-1,0.1-1.8,1-1.8,2C0.2,3,0.9,3.7,1.9,3.8h0c1,0.1,2-0.7,2-1.7c0.1-1-0.7-2-1.7-2C2.1,0,2,0,1.9,0L1.9,0L1.9,0z M0,19h4V6.3H0V19z"
	/>
</svg>
