<?xml version="1.0" encoding="utf-8"?>
<!-- Generator: Adobe Illustrator 21.1.0, SVG Export Plug-In . SVG Version: 6.00 Build 0)  -->
<svg version="1.1" id="Layer_1" xmlns="http://www.w3.org/2000/svg" xmlns:xlink="http://www.w3.org/1999/xlink" x="0px" y="0px"
	 viewBox="0 0 22.2 17.4" style="enable-background:new 0 0 22.2 17.4;" xml:space="preserve">
<path d="M21.9,2c-0.5,0.2-1,0.4-1.5,0.5c0.6-0.5,1-1.2,1.3-1.9l0,0c0-0.1,0-0.3-0.2-0.3c-0.1,0-0.1,0-0.2,0l0,0
	c-0.7,0.4-1.5,0.7-2.3,0.9c0,0-0.1,0-0.1,0c-0.2,0-0.3-0.1-0.4-0.1c-0.9-0.7-2-1.1-3.2-1.1c-0.5,0-1,0.1-1.5,0.2
	c-2.1,0.6-3.5,2.6-3.2,4.8c0,0,0,0.1,0,0.1c0,0-0.1,0.1-0.1,0.1h0C6.9,5,3.8,3.4,1.6,0.9l0,0c-0.1-0.1-0.3-0.1-0.4,0c0,0,0,0,0,0.1
	l0,0C0.7,1.6,0.5,2.4,0.5,3.2c0,1.2,0.5,2.4,1.4,3.2C1.5,6.3,1.2,6.2,0.8,6l0,0C0.7,5.9,0.6,6,0.5,6.1c0,0,0,0.1,0,0.1l0,0
	c0,1.8,1.1,3.5,2.8,4.2H3.2c-0.3,0-0.5,0-0.8-0.1l0,0c-0.1,0-0.3,0-0.3,0.2c0,0,0,0.1,0,0.1l0,0c0.6,1.6,2.1,2.8,3.8,3.1
	c-1.5,0.9-3.2,1.4-5,1.4H0.4c-0.2,0-0.3,0.1-0.4,0.3c0,0.2,0,0.3,0.2,0.4c2,1.1,4.3,1.7,6.6,1.7c1.9,0,3.9-0.4,5.7-1.1
	c1.6-0.7,3-1.7,4.1-2.9c1.1-1.2,1.9-2.5,2.5-4C19.7,8,20,6.5,20,5V4.9c0-0.2,0.1-0.5,0.3-0.6c0.7-0.6,1.4-1.2,1.9-2l0,0
	c0.1-0.1,0-0.3-0.1-0.3C22,2,21.9,2,21.9,2L21.9,2L21.9,2z"/>
</svg>
