<?xml version="1.0" encoding="utf-8"?>
<!-- Generator: Adobe Illustrator 22.1.0, SVG Export Plug-In . SVG Version: 6.00 Build 0)  -->
<svg version="1.1" id="Layer_1" xmlns="http://www.w3.org/2000/svg" xmlns:xlink="http://www.w3.org/1999/xlink" x="0px" y="0px"
	 viewBox="0 0 15 15" style="enable-background:new 0 0 15 15;" xml:space="preserve">
<style type="text/css">
	.st0{fill:none;stroke:#000000;}
</style>
<g>
	<path id="Settings" class="st0" d="M5.2,12.1c0.7,0,1.2,0.5,1.2,1.2v0.9c0,0.1,0.1,0.2,0.2,0.2h1.9c0.1,0,0.2-0.1,0.2-0.2v-0.9
		c0-0.7,0.5-1.2,1.2-1.2c0.3,0,0.6,0.1,0.8,0.4l0.5,0.5c0.1,0.1,0.2,0.1,0.3,0l1.4-1.4c0.1-0.1,0.1-0.2,0-0.3l0,0l-0.5-0.5
		c-0.5-0.5-0.5-1.2,0-1.7c0.2-0.2,0.5-0.4,0.9-0.4H14c0.1,0,0.2-0.1,0.2-0.2l0,0V6.6c0-0.1-0.1-0.2-0.2-0.2h-0.9
		c-0.7,0-1.2-0.5-1.2-1.2c0-0.3,0.1-0.6,0.4-0.9l0.5-0.5c0.1-0.1,0.1-0.2,0-0.3l0,0l-1.4-1.4c-0.1-0.1-0.2-0.1-0.3,0l-0.5,0.5
		c-0.2,0.2-0.5,0.4-0.8,0.4S9.3,3,9.2,2.8c-0.3-0.4-0.5-0.7-0.5-1V1c0-0.1-0.1-0.2-0.2-0.2l0,0H6.5C6.4,0.8,6.3,0.9,6.3,1v0.9
		C6.3,2.5,5.8,3,5.2,3C4.9,3,4.6,2.9,4.4,2.7L3.9,2.3c-0.1-0.1-0.3-0.1-0.3,0L2.2,3.6c-0.1,0-0.1,0.2,0,0.3l0.5,0.5
		c0.4,0.4,0.4,1.2-0.1,1.6C2.4,6.2,2.2,6.3,1.9,6.3H1c-0.1,0-0.2,0.1-0.2,0.2l0,0v1.9c0,0.1,0.1,0.2,0.2,0.2h0.9
		C2.5,8.7,3,9.2,3,9.8c0,0.3-0.1,0.6-0.4,0.9l-0.5,0.5c-0.1,0.1-0.1,0.2,0,0.3l1.5,1.4c0.1,0.1,0.2,0.1,0.3,0l0.5-0.5
		C4.6,12.2,4.9,12.1,5.2,12.1z"/>
	<circle class="st0" cx="7.5" cy="7.5" r="1.9"/>
</g>
</svg>
